# xmcd CD database file
#
# Track frame offsets:
#	222
#	28267
#	52417
#	69720
#	104325
#	134830
#	161625
#	170135
#	186127
#	193762
#	204732
#	252625
#	289675
#
# Disc length: 4298 seconds
#
# Revision: 0
# Processed by: cddbd v1.5.1PL2 Copyright (c) Steve Scherf et al.
# Submitted via: CDex 1.51
#
DISCID=de10c80d
DTITLE=Aladár Pege - Jazz and CLassic
DYEAR=1990
DGENRE=Jazz
TTITLE0=Montreaux Inventons
TTITLE1=The Yello Ball
TTITLE2=Dahlia
TTITLE3=Studio Blues
TTITLE4=Autumn Song
TTITLE5=No Overtaking
TTITLE6=Waltz
TTITLE7=Scherzo
TTITLE8=Bear Dance
TTITLE9=The Swan
TTITLE10=The Peacock
TTITLE11=Variations on 12 Tones
TTITLE12=Bop Dance
EXTD=YEAR: 1990
EXTT0=
EXTT1=
EXTT2=
EXTT3=
EXTT4=
EXTT5=
EXTT6=
EXTT7=
EXTT8=
EXTT9=
EXTT10=
EXTT11=
EXTT12=
PLAYORDER=
